<svg width="35" height="35" viewBox="0 0 35 35" fill="none" xmlns="http://www.w3.org/2000/svg">
<path d="M9 21.1938L13.8 25.9923M9 21.1938C9 21.1938 11.834 14.1121 15.868 9.19768M9 21.1938C-1.438 18.5847 7.94 9.19768 15.868 9.19768M13.8 25.9923C13.8 25.9923 20.884 23.1592 25.8 19.1265M13.8 25.9923C16.41 36.4249 25.8 27.0519 25.8 19.1265M15.868 9.19768C19.948 4.22728 26.674 2 33 2C33 8.32396 30.772 15.0458 25.8 19.1265M22.4 12.4106L23.814 10.9971M4.538 26.6441C2.634 28.2455 2 33 2 33C2 33 6.744 32.3642 8.342 30.4568C9.242 29.3892 9.23 27.7497 8.228 26.758C7.73261 26.2925 7.08414 26.024 6.40457 26.003C5.72501 25.982 5.06119 26.21 4.538 26.6441Z" stroke="white" stroke-width="3" stroke-linecap="round" stroke-linejoin="round"/>
</svg>
