<svg width="22" height="33" viewBox="0 0 22 33" fill="none" xmlns="http://www.w3.org/2000/svg">
<path d="M2 9.53716L19.2472 23.3243C19.6432 23.6401 19.8412 23.7979 19.9148 23.9848C19.9803 24.1524 19.9836 24.3328 19.9214 24.5003C19.8526 24.6888 19.6596 24.8515 19.2734 25.177L13.4316 30.0906C12.7247 30.6867 12.3696 30.9863 12.0685 30.9992C11.9411 31.0046 11.814 30.9823 11.6963 30.9339C11.5787 30.8854 11.4733 30.812 11.3878 30.7189C11.1947 30.5046 11.1947 30.0616 11.1947 29.1755V3.82448C11.1947 2.93841 11.1947 2.49538 11.3878 2.28112C11.4733 2.18799 11.5787 2.11458 11.6963 2.06613C11.814 2.01768 11.9411 1.99537 12.0685 2.0008C12.3696 2.01369 12.723 2.31173 13.4316 2.9078L19.3274 7.86975C19.6972 8.17907 19.8821 8.33534 19.9525 8.51738C20.013 8.67849 20.0163 8.8557 19.959 9.0168C19.8936 9.20207 19.7136 9.36156 19.3519 9.68054L2 25.011" stroke="white" stroke-width="3" stroke-linecap="round" stroke-linejoin="round"/>
</svg>
